<svg version="1.1" id="Layer_1" xmlns="http://www.w3.org/2000/svg" xmlns:xlink="http://www.w3.org/1999/xlink" x="0px" y="0px"
	 width="100%" viewBox="0 0 1000 1125" enable-background="new 0 0 1000 1125" xml:space="preserve">
<path fill="#BB84E8" opacity="1.000000" stroke="none" 
	d="
M1.000003,604.000000 
	C1.000000,576.312439 1.000000,548.624878 1.343047,520.809692 
	C2.111903,520.005188 2.832012,519.363831 2.918790,518.645874 
	C3.998151,509.716553 4.610995,500.714020 6.079531,491.852203 
	C8.622561,476.506378 11.647704,461.239624 14.547457,445.954285 
	C15.257835,442.209686 16.265413,438.521454 17.136353,434.807281 
	C16.848635,434.739655 16.560919,434.671997 16.273201,434.604370 
	C15.653774,435.856873 15.034348,437.109406 14.000046,439.200836 
	C14.000046,437.527435 13.858600,436.828400 14.023404,436.211090 
	C14.969460,432.667603 16.049477,429.159424 16.972189,425.610229 
	C22.756613,403.360229 30.814779,381.905396 40.514484,361.122955 
	C52.600945,335.226685 65.959435,309.926392 83.140739,287.008514 
	C95.951988,269.919769 109.022896,252.848495 123.651321,237.348511 
	C138.644867,221.461655 155.220825,206.958160 171.955154,192.859192 
	C185.330215,181.590454 199.904297,171.729309 214.119736,161.484222 
	C217.827591,158.811951 223.010284,157.952820 223.565979,152.066101 
	C223.639252,151.289993 225.181152,150.576141 226.130249,149.970291 
	C248.286255,135.827011 271.562836,123.725098 296.017242,114.223198 
	C314.648193,106.984055 333.710205,100.677956 352.929077,95.174187 
	C375.680420,88.658829 398.928223,84.116043 422.572296,81.966553 
	C436.607391,80.690628 450.615143,78.539459 464.669830,78.194786 
	C483.243073,77.739326 501.854828,78.517113 520.440552,79.077332 
	C527.633362,79.294136 534.825867,80.168816 541.973389,81.092560 
	C553.443970,82.575012 564.894287,84.237213 576.321594,86.025330 
	C590.754211,88.283699 605.432678,89.679276 619.510071,93.346977 
	C646.220215,100.305962 672.578186,108.616699 698.133118,116.088409 
	C698.425476,116.356560 697.712708,115.635773 696.928589,115.003418 
	C696.227661,114.438156 695.448059,113.970421 693.685181,112.761574 
	C695.571533,113.075462 696.233459,113.074120 696.808228,113.297325 
	C719.012573,121.920914 740.475220,132.044983 761.146240,143.948380 
	C788.868958,159.912506 814.917664,178.239380 838.256470,200.029297 
	C861.835571,222.043671 883.861145,245.535095 902.735657,271.959198 
	C919.535400,295.478577 934.099426,320.217133 947.393616,345.785950 
	C949.380005,349.606415 949.297791,355.067169 955.519714,355.336945 
	C955.952087,355.355682 956.380920,356.610962 956.724609,357.332581 
	C958.805908,361.703278 961.251282,365.948181 962.859070,370.488647 
	C969.855896,390.247925 977.206970,409.913513 983.249207,429.968750 
	C987.766663,444.962799 991.038757,460.399261 993.830261,475.826019 
	C996.298706,489.467163 997.312378,503.370270 999.081543,517.143127 
	C999.170166,517.832825 1000.335815,518.384216 1001.000000,519.000000 
	C1001.000000,548.687561 1001.000000,578.375122 1000.658447,608.188171 
	C999.890198,608.988953 999.162598,609.630859 999.083618,610.344666 
	C998.326538,617.184998 997.888367,624.066223 996.952820,630.880005 
	C995.403748,642.162537 993.997498,653.494751 991.710205,664.637573 
	C989.320740,676.277832 985.982422,687.724365 983.022217,699.246155 
	C976.421143,724.939758 966.854919,749.577515 955.650574,773.543823 
	C943.844177,798.798218 930.329773,823.191345 913.630310,845.559875 
	C901.555176,861.734253 889.086121,877.732910 875.486145,892.615906 
	C862.883240,906.407837 848.936890,919.061646 834.854980,931.385803 
	C822.514832,942.185486 809.595642,952.445312 796.171997,961.859619 
	C768.401855,981.335327 738.773376,997.637939 707.499573,1010.862000 
	C687.009277,1019.526184 666.060791,1026.891113 644.384644,1031.955688 
	C630.232178,1035.262451 615.994202,1038.262695 601.699768,1040.883179 
	C590.193787,1042.992432 578.562927,1044.459961 566.954529,1045.956787 
	C559.639832,1046.900146 552.229736,1047.118042 544.924072,1048.113647 
	C532.728577,1049.775757 520.648376,1049.311768 508.553864,1047.273682 
	C499.424316,1045.735107 490.278320,1044.261475 481.102264,1043.039795 
	C469.784241,1041.532715 458.252197,1041.142334 447.128265,1038.782104 
	C430.411011,1035.234985 413.800232,1030.948975 397.443268,1025.990601 
	C363.902527,1015.823181 331.942749,1001.850159 301.761780,983.953308 
	C281.116882,971.711182 261.691284,957.812988 244.494202,940.972534 
	C238.041885,934.653992 231.714935,928.207581 225.317200,921.833069 
	C214.658813,911.213440 203.187500,901.278137 193.550476,889.801880 
	C183.904053,878.314575 175.825760,865.461731 167.602966,852.853455 
	C164.599884,848.248657 163.069550,842.660156 161.046356,837.450867 
	C160.227844,835.343262 160.504959,832.572693 159.227524,830.920105 
	C152.239212,821.879211 145.339691,812.708862 137.621735,804.306824 
	C125.892502,791.538025 114.702621,778.363098 106.030083,763.360779 
	C97.936584,749.360107 90.185738,735.099121 83.324203,720.464966 
	C75.590668,703.971130 69.019531,686.932251 62.065220,670.421082 
	C60.517063,670.914734 59.370903,671.280212 58.224735,671.645752 
	C58.118435,670.550110 58.039967,669.450745 57.892551,668.360718 
	C57.831161,667.906799 57.666401,667.452881 57.475033,667.032471 
	C51.569504,654.060242 49.497078,640.131775 46.859653,626.280334 
	C42.851803,605.231628 41.246243,584.013123 41.068619,562.662415 
	C40.992992,553.571838 41.631966,544.473633 42.011112,535.381592 
	C42.256660,529.493286 42.619743,523.609863 42.930157,517.724243 
	C40.529114,529.389893 38.720871,541.134583 38.165813,552.938171 
	C37.693813,562.975464 38.758640,573.078613 38.979519,583.156189 
	C39.383347,601.580872 39.681515,620.007935 39.960442,638.434998 
	C39.977066,639.533081 39.434692,640.639648 38.873119,642.833435 
	C32.416939,633.254883 33.243484,622.927979 30.138466,613.741943 
	C34.542122,678.803650 54.495632,739.459717 82.754616,798.021362 
	C79.306427,796.028320 76.025551,793.942993 74.158501,790.969788 
	C69.192322,783.061340 64.455383,774.957764 60.326073,766.587097 
	C54.238800,754.247437 48.698875,741.635254 43.047405,729.084412 
	C40.943333,724.411682 39.181522,719.584961 37.263634,714.828430 
	C36.823666,714.973328 36.383698,715.118286 35.943729,715.263245 
	C36.518906,719.042786 37.094078,722.822327 37.669250,726.601868 
	C37.212162,726.674866 36.755074,726.747803 36.297981,726.820740 
	C33.544704,720.625793 30.383013,714.575928 28.120213,708.206726 
	C22.847780,693.366211 16.905340,678.634399 13.273053,663.373352 
	C8.769993,644.453735 6.343310,625.041077 2.924042,605.858459 
	C2.797271,605.147217 1.664152,604.615417 1.000003,604.000000 
M244.135010,862.623352 
	C244.587402,862.669006 245.039780,862.714661 245.492188,862.760315 
	C245.237854,862.295166 244.983505,861.829956 244.289566,860.859924 
	C241.231110,855.552124 232.318527,853.949341 234.455154,845.339417 
	C234.470459,845.277710 234.233612,845.166016 234.131760,845.060913 
	C229.789612,840.583069 225.449539,836.103210 221.109146,831.623596 
	C220.865997,831.752991 220.622849,831.882324 220.379700,832.011658 
	C223.303833,836.664062 226.227951,841.316528 229.335602,846.260925 
	C227.999359,845.761658 226.494125,845.429260 225.236710,844.680664 
	C222.775482,843.215393 220.452499,841.517883 217.857300,839.365295 
	C217.341019,839.261902 216.824738,839.158447 216.308456,839.055054 
	C216.062531,839.369446 215.816605,839.683838 215.570679,839.998230 
	C216.137253,840.210632 216.703842,840.423035 217.709671,841.140442 
	C225.445602,849.377625 233.750977,856.901917 244.135010,862.623352 
M250.275970,833.854370 
	C249.935394,833.697510 249.594833,833.540588 249.254242,833.383789 
	C249.477661,833.945679 249.701080,834.507629 250.262344,835.733093 
	C250.799332,836.214355 251.336319,836.695557 251.873291,837.176819 
	C250.465149,837.155273 248.356232,837.714600 247.772064,837.009949 
	C245.444901,834.202637 243.592896,831.001465 241.684586,828.126465 
	C243.091980,826.407471 244.115265,825.157593 245.280594,823.734253 
	C242.058868,821.039368 239.035278,818.563171 236.069809,816.019104 
	C229.087402,810.028748 221.616959,804.294800 223.163818,793.420288 
	C232.865707,792.185059 232.946136,792.249023 231.371979,799.494507 
	C237.567352,803.980591 243.687454,808.412170 249.855850,812.878662 
	C249.563828,814.723328 249.248398,816.715759 249.078186,817.790894 
	C252.533005,821.402832 255.803436,824.761475 259.006348,828.183411 
	C265.338959,834.949036 270.589691,842.568298 279.697449,846.676575 
	C284.881805,849.015015 288.693024,854.392883 293.130402,858.393311 
	C298.198883,862.962830 301.095428,870.170532 309.176239,871.283936 
	C308.797485,872.801208 308.461578,874.146790 308.093292,875.622070 
	C312.312531,877.754944 316.439423,879.841125 320.839783,882.065552 
	C320.503296,882.637207 319.914886,883.636780 319.479095,884.377197 
	C321.192444,885.592224 322.671326,886.838440 324.324066,887.779236 
	C331.851807,892.064697 339.417816,896.283386 347.002625,900.467163 
	C347.838623,900.928345 355.555328,906.710449 356.231323,907.547729 
	C357.061462,908.575806 357.856049,909.900391 358.973907,910.381775 
	C363.663208,912.401306 368.506836,914.059570 373.218964,916.029602 
	C378.217194,918.119141 383.878052,919.510986 387.892487,922.842712 
	C392.953888,927.043335 400.715820,928.503906 405.468658,924.162781 
	C408.462280,927.138489 411.455872,930.114197 414.381073,933.021912 
	C425.798615,934.905334 437.649139,937.045410 449.558899,938.778076 
	C464.425568,940.940918 479.088226,944.878845 494.321503,944.038147 
	C499.319275,943.762451 504.334839,943.809326 509.835358,944.255066 
	C513.250793,945.425415 516.666138,946.595703 520.081543,947.766052 
	C520.264893,947.179260 520.448181,946.592407 520.631470,946.005615 
	C517.113464,944.977844 513.595459,943.950073 509.735626,942.264526 
	C508.083191,941.644470 506.430756,941.024414 504.778290,940.404358 
	C504.892334,940.103210 505.006348,939.802002 505.120361,939.500854 
	C512.249329,939.500854 519.378235,939.500854 526.685425,939.500854 
	C527.240479,940.489258 527.938660,941.732666 528.612244,942.932251 
	C536.236328,941.605469 543.713440,940.283813 551.202271,939.031799 
	C551.979004,938.901978 552.825500,939.183594 553.638977,939.279480 
	C558.477844,939.849915 563.365906,941.092529 568.136841,940.741821 
	C571.002441,940.531250 575.568970,941.107300 576.637085,935.975464 
	C573.753784,936.353699 571.098511,936.702026 568.565857,937.034241 
	C568.829224,934.800171 569.032715,933.074280 569.275146,931.018188 
	C571.522461,931.018188 574.219482,930.191650 575.687256,931.183777 
	C579.137878,933.516113 581.904053,931.803040 585.154602,931.167419 
	C592.290161,929.772034 599.525696,928.550110 606.769165,928.158020 
	C611.924622,927.879028 616.569519,926.809387 621.451721,925.135010 
	C631.036133,921.847961 640.915161,919.289917 650.824402,917.127563 
	C657.070923,915.764526 664.340210,916.863403 668.538086,910.955933 
	C671.856689,906.285706 676.133484,905.289490 681.110718,904.927917 
	C681.415344,904.905762 681.700256,904.651001 681.999878,904.516785 
	C694.108337,899.097229 706.537415,894.284241 718.239990,888.097107 
	C730.941406,881.381897 742.981567,873.412170 755.253540,865.896973 
	C756.086060,865.387146 756.655884,864.170471 756.984192,863.163879 
	C758.313232,859.088806 760.897522,856.307190 764.829468,854.579285 
	C767.947571,853.208923 771.088684,851.779724 773.943298,849.946350 
	C778.617310,846.944397 784.340149,844.589233 783.465454,837.236267 
	C783.390015,836.601868 785.390442,834.936951 785.970581,835.128967 
	C792.033508,837.134705 793.073792,832.381592 795.069397,828.749390 
	C795.923767,827.194336 797.101135,825.816223 798.137146,824.361572 
	C802.298523,818.518860 807.771912,813.336487 807.810181,804.607727 
	C804.514038,808.481201 802.891296,814.447632 797.367554,811.803589 
	C793.777161,815.864990 791.117188,820.665649 787.045044,823.167908 
	C770.113403,833.572083 756.937134,849.121094 738.806030,857.854309 
	C734.337463,860.006714 730.557617,863.545044 726.275879,866.140503 
	C721.060425,869.302063 715.774597,872.673767 708.106201,870.115295 
	C716.309814,864.182129 726.724121,862.435791 731.169800,852.979431 
	C732.517578,854.087891 733.588013,854.968201 734.922729,856.065857 
	C739.895813,848.465698 746.181580,842.968567 754.558044,840.131470 
	C754.992676,839.984253 755.717224,839.706726 755.732666,839.454712 
	C755.980103,835.414978 758.942139,836.280762 761.518188,835.915894 
	C764.601746,835.479004 766.817627,834.591858 768.449585,830.718506 
	C770.892395,824.920959 774.082153,818.537964 781.971497,817.558533 
	C781.594604,813.225647 782.322144,810.277527 787.581665,809.498169 
	C790.246277,809.103333 793.339905,806.579346 794.819397,804.152222 
	C799.284729,796.826965 802.713867,788.786377 811.709290,785.620850 
	C812.323792,785.404602 812.680847,784.456909 813.120178,783.897095 
	C811.708618,782.213440 810.500671,780.772583 808.825317,778.774353 
	C805.206665,782.252136 801.635559,785.737366 798.000549,789.154602 
	C796.257812,790.792847 794.394226,792.302551 792.585388,793.870483 
	C792.350159,791.851501 792.117798,789.832092 791.874512,787.814087 
	C791.855164,787.653503 791.761414,787.501831 791.322754,786.347046 
	C790.275940,789.597168 786.041199,791.074280 789.819275,794.790466 
	C790.317444,795.280396 790.107727,797.351990 789.497681,797.958130 
	C786.809448,800.629395 783.854248,803.032043 780.278870,806.159119 
	C779.423279,803.347168 778.963196,801.835083 778.303162,799.665649 
	C775.309387,803.997437 772.477905,807.555908 770.233215,811.452454 
	C765.267212,820.072632 759.293396,827.124390 748.477966,827.840698 
	C748.289795,826.089355 748.557678,824.231689 747.857300,822.873291 
	C745.677551,818.645813 747.889771,817.802856 751.347839,818.050110 
	C754.155823,818.250793 755.401184,817.193726 756.094299,814.479492 
	C756.591370,812.532776 757.568726,810.224854 759.088867,809.114319 
	C763.626465,805.799255 761.906921,795.579346 771.456970,797.828186 
	C771.617981,797.866089 771.971619,796.708496 772.362732,796.208252 
	C774.955627,792.891357 777.508484,789.538696 780.217102,786.317688 
	C784.446106,781.288696 789.185547,776.633484 792.939148,771.280273 
	C795.338013,767.859314 795.712891,763.015320 798.122742,759.606567 
	C802.529602,753.372742 807.989075,747.891907 812.567566,741.766663 
	C814.610840,739.033142 815.584290,735.499817 817.041992,732.328918 
	C817.230774,731.918213 817.411743,731.503967 817.625061,731.027100 
	C818.640991,731.384155 819.535767,731.698669 820.253479,731.950989 
	C822.023438,727.356689 823.739380,722.902771 825.164978,719.202332 
	C826.682556,718.894714 828.413635,719.020691 828.739624,718.403992 
	C831.965759,712.300415 835.405518,706.245667 837.876953,699.827515 
	C839.844727,694.717285 840.549744,689.120789 842.056824,682.713440 
	C850.568970,680.205078 852.726868,672.337524 853.141357,662.961609 
	C853.337219,658.532654 854.190247,653.691895 856.314026,649.921082 
	C858.190247,646.589600 859.638245,643.707642 860.412231,639.804504 
	C861.278625,635.435242 860.557861,633.049622 857.262207,631.390503 
	C858.275757,629.512390 859.114197,627.901245 860.007324,626.320984 
	C860.787903,624.939819 861.464050,622.576965 862.474426,622.411926 
	C866.345825,621.779907 864.923828,619.063293 864.889099,617.106140 
	C864.840088,614.345703 863.965515,611.581726 864.058472,608.840088 
	C864.607056,592.663879 865.683228,576.497620 865.862793,560.319946 
	C865.962219,551.355835 865.161499,542.300659 863.820190,533.429688 
	C862.911560,527.420166 863.243713,521.992371 866.584473,515.399780 
	C863.087769,514.906372 860.081787,514.482239 857.589233,514.130554 
	C858.496033,509.356018 859.444214,504.363525 859.991028,501.484497 
	C856.725403,495.113556 853.756042,490.384033 851.936890,485.247162 
	C851.211609,483.199127 853.113098,480.269287 853.663818,477.707611 
	C854.242004,475.018036 855.796753,472.793396 853.374390,469.558258 
	C848.956238,463.657654 843.389954,457.659973 846.700989,449.557587 
	C841.826904,446.015350 840.369812,441.053345 839.042358,436.139923 
	C836.656616,427.309357 835.591309,417.958801 827.742615,411.160492 
	C831.114502,411.078369 831.114502,411.078369 837.359375,419.203125 
	C836.736938,415.936646 835.485046,412.904114 834.424683,409.806061 
	C834.127747,408.938538 834.488220,407.867828 834.384094,406.907990 
	C834.168152,404.917664 833.843079,402.939178 833.562805,400.955841 
	C831.876038,401.239838 830.189819,401.527618 828.501892,401.804352 
	C828.186279,401.856079 827.863403,401.863434 826.555908,401.977295 
	C827.523132,400.088409 828.529053,398.737518 828.891846,397.231628 
	C829.213074,395.898254 828.818909,394.392517 828.740540,392.962860 
	C827.172302,393.984009 826.674683,394.946198 826.067566,395.833496 
	C825.362976,396.863403 824.562195,397.827576 823.803162,398.820251 
	C823.213501,398.692535 822.623901,398.564819 822.034302,398.437103 
	C822.397705,394.629028 822.761108,390.820923 823.188660,386.340729 
	C821.442688,386.200989 818.268250,385.946930 814.026001,385.607422 
	C815.504089,383.002350 816.671143,380.945312 818.201294,378.248474 
	C819.249939,371.721222 810.322021,369.648773 809.257263,362.234222 
	C808.429688,356.471954 803.624573,351.062927 799.926025,345.977875 
	C792.940613,336.373840 785.614868,327.006897 778.171936,317.749298 
	C772.453003,310.635956 766.334167,303.844208 760.399048,296.904419 
	C756.859497,292.765808 754.736206,287.030670 747.699463,287.028992 
	C746.133972,287.028625 744.408325,284.668823 743.035889,283.143860 
	C739.731567,279.472443 737.064636,275.060944 733.273010,272.035034 
	C728.026367,267.847870 722.023560,264.528900 716.299255,261.028809 
	C704.347717,253.721191 691.821960,247.278397 679.212524,241.136444 
	C652.350952,228.052490 623.995728,219.122894 595.041321,212.004105 
	C588.941406,210.504395 582.829041,209.055435 576.722412,207.583099 
	C576.737000,206.899017 576.751587,206.214951 576.766235,205.530884 
	C579.678345,205.020828 582.582092,204.167542 585.504883,204.096191 
	C588.495361,204.023193 591.504517,204.716614 594.984070,205.131638 
	C593.606201,203.525116 592.496643,202.489731 591.698730,201.253265 
	C589.210510,197.397125 587.157654,197.284805 583.397217,199.868225 
	C582.061157,200.786133 579.437378,200.520386 577.668884,199.956390 
	C575.007324,199.107620 572.580933,197.521484 570.054565,196.248825 
	C570.131165,196.905182 570.207764,197.561523 570.284424,198.217880 
	C568.727539,199.360672 567.170715,200.503479 565.635803,201.630142 
	C566.169922,201.877762 566.823792,202.180893 567.477661,202.484024 
	C565.365234,202.846893 563.268311,202.777466 561.454407,202.025406 
	C556.559143,199.995834 551.765015,197.716705 546.968811,195.456009 
	C543.820068,193.971817 540.907227,192.399582 539.819824,197.776840 
	C539.627869,198.725800 537.347290,200.001205 536.168335,199.872223 
	C531.019714,199.308975 525.824829,198.649323 520.831787,197.326263 
	C515.503784,195.914505 510.595215,195.069351 506.489105,199.872375 
	C505.923370,198.323456 505.794769,196.275299 504.856171,195.788254 
	C503.343567,195.003387 499.791626,194.802597 499.696899,195.122803 
	C497.567535,202.322464 491.836884,199.283157 487.022675,200.076218 
	C487.380951,198.531921 487.635590,197.434448 487.848999,196.514603 
	C485.401489,195.979599 483.357666,195.102158 481.361969,195.200684 
	C478.588043,195.337646 475.763611,195.951630 473.126678,196.848923 
	C471.287933,197.474625 469.822784,199.618576 468.024536,199.863403 
	C462.815857,200.572495 457.504395,200.491043 452.270142,201.059479 
	C448.618439,201.456070 444.517548,201.554810 441.535400,203.329391 
	C437.602325,205.669876 435.584137,205.722931 434.722961,202.614197 
	C429.702789,204.389328 424.716431,206.761459 419.463806,207.856888 
	C412.775360,209.251755 405.614655,208.729660 399.117645,210.617447 
	C388.011139,213.844528 377.242432,218.248703 366.369324,222.260086 
	C357.171631,225.653397 348.021698,229.176727 338.869659,232.692093 
	C338.195190,232.951157 337.395050,233.491394 337.130554,234.106216 
	C335.864929,237.048096 334.763916,240.060776 333.623352,242.999405 
	C331.242371,242.999405 329.246368,243.041931 327.253021,242.987091 
	C325.374329,242.935394 323.498505,242.781143 321.579926,242.669601 
	C322.679657,249.768173 322.228851,250.176086 310.702362,252.473312 
	C311.370453,250.208450 311.967743,248.183487 312.595612,246.054962 
	C303.239197,251.754959 292.216278,254.654404 285.919403,264.659088 
	C287.889008,264.953857 289.437927,265.185669 290.986877,265.417511 
	C291.113739,265.830780 291.240601,266.244049 291.367493,266.657318 
	C282.874786,269.931274 274.382080,273.205231 264.739899,276.922302 
	C268.572540,272.993591 271.965240,269.515778 275.357971,266.037994 
	C275.019623,265.738373 274.681305,265.438751 274.342957,265.139130 
	C250.087036,282.340271 236.109787,309.106842 214.668839,330.816895 
	C215.224213,325.134155 215.642593,320.853271 216.060974,316.572388 
	C156.883636,382.082550 131.529053,461.152557 122.727379,547.709534 
	C115.267738,541.903564 119.278915,534.727722 118.911842,527.566528 
	C115.393906,532.360046 112.617828,535.863892 112.789871,541.745056 
	C113.350067,560.894897 112.762329,580.075928 113.127731,599.235229 
	C113.256348,605.979187 114.861259,612.694885 115.792099,619.423523 
	C117.245369,616.743713 117.000816,613.758362 118.188148,611.539124 
	C119.668381,608.772583 116.428070,601.566589 124.529037,604.640564 
	C126.477486,594.867981 128.063766,585.693909 126.247208,576.059570 
	C125.676941,573.035034 123.338654,567.729553 129.799774,566.453918 
	C130.371246,566.341064 130.614182,564.531494 130.997894,563.505493 
	C134.054199,555.333435 137.107651,547.160339 140.161987,538.987549 
	C140.849991,539.201111 141.538010,539.414673 142.226013,539.628235 
	C141.233444,546.589294 140.240860,553.550354 139.209671,560.782227 
	C138.531219,560.911377 137.321014,561.141663 136.510559,561.295837 
	C135.998062,569.632690 135.587097,577.546021 135.004593,585.446655 
	C134.426376,593.289612 133.296768,601.110718 133.108292,608.958191 
	C132.924713,616.602173 133.626709,624.267395 133.939896,631.923340 
	C134.626694,631.905212 135.313507,631.887146 136.000305,631.869080 
	C136.000305,629.139160 135.805817,626.391235 136.057098,623.684631 
	C136.290558,621.170166 136.999512,618.699707 137.499115,616.209900 
	C142.448074,622.962585 142.227264,641.362610 141.813019,647.511414 
	C141.622528,650.339111 141.407776,653.350891 142.139420,656.023071 
	C145.438751,668.072998 147.844681,680.287842 146.767441,692.755737 
	C146.417191,696.809448 147.674866,699.703857 148.941040,703.103027 
	C153.777252,716.086304 158.359360,729.164490 162.997940,742.220947 
	C167.347549,754.463928 169.133270,767.702759 177.709778,777.487183 
	C181.064392,779.138123 184.418991,780.789124 188.073288,782.587585 
	C188.073288,786.347107 188.073288,790.134277 187.700302,794.306824 
	C187.578384,794.437561 187.456467,794.568298 186.838104,794.264343 
	C186.050079,794.197937 185.262039,794.131592 184.474014,794.065247 
	C184.716721,795.563477 184.418167,797.589478 185.285355,798.478882 
	C194.594177,808.027344 204.077423,817.406067 213.567032,826.776428 
	C213.921951,827.126892 214.829437,826.917725 216.447281,827.046265 
	C215.715805,823.758972 215.369339,820.705505 214.354218,817.893433 
	C209.409531,804.195923 198.043259,793.914734 194.053879,779.605591 
	C192.766235,774.987061 189.752380,770.877197 187.905594,766.379700 
	C185.886826,761.463440 183.240524,756.423828 186.861923,750.950256 
	C191.548477,759.166504 196.127792,767.194702 200.834579,775.446411 
	C200.564163,775.644958 199.344925,776.540039 198.125320,777.435425 
	C198.441025,777.846680 198.529144,777.992065 198.645721,778.109009 
	C206.880875,786.378113 212.509995,795.960999 214.132187,807.738892 
	C214.359879,809.392029 215.808060,811.842407 217.160583,812.213562 
	C224.251160,814.159180 230.017502,820.079895 231.392487,827.913757 
	C236.034576,827.387451 237.887100,829.462646 238.312027,834.317017 
	C238.722946,839.010925 242.093307,842.423523 246.099777,845.059692 
	C248.537933,846.663818 251.185226,848.319336 252.884415,850.590698 
	C255.437408,854.003418 257.241394,857.976440 259.434937,861.836365 
	C261.168274,860.761780 262.939240,859.663879 265.636383,857.991821 
	C260.991608,852.104919 256.450409,846.349304 251.619888,840.227051 
	C254.447159,840.227051 256.596619,840.227051 258.746094,840.227051 
	C258.855652,839.802002 258.965179,839.376892 259.074707,838.951843 
	C256.270752,837.398865 253.466812,835.845886 250.275970,833.854370 
M350.617767,954.944946 
	C353.902863,956.947937 357.160187,958.998596 360.483673,960.935608 
	C362.398682,962.051636 364.324066,963.308533 366.414764,963.931152 
	C370.722168,965.213806 375.185333,965.967712 379.508179,967.205444 
	C385.824738,969.014038 392.044220,971.167297 398.382080,972.890381 
	C399.429382,973.175110 400.869873,972.013794 402.128632,971.520752 
	C401.917908,971.013184 401.707184,970.505615 401.496460,969.998047 
	C399.021820,969.998047 396.498810,970.280701 394.094635,969.869141 
	C393.024231,969.685852 391.257935,967.449341 391.393646,967.255676 
	C393.458282,964.307556 390.715393,963.795166 389.219971,963.079895 
	C378.582886,957.991699 367.770508,953.259033 357.232544,947.977051 
	C340.957123,939.819092 324.261292,932.265198 308.871338,922.650391 
	C296.799561,915.108398 286.437042,904.831482 275.306000,895.780945 
	C274.474701,895.105042 273.570038,894.519348 272.551575,893.785156 
	C272.084625,895.490051 271.732208,896.776733 271.387695,898.034607 
	C269.202515,897.615906 267.419159,897.274231 265.837280,896.971130 
	C268.321991,901.314758 270.680206,905.437195 273.212616,909.864136 
	C274.583344,909.099609 276.501129,908.029968 279.493439,906.361023 
	C279.325867,913.119690 284.667358,914.444641 288.679688,917.258545 
	C297.866669,923.701416 306.500031,931.023193 316.075500,936.798889 
	C326.975952,943.373840 338.656616,948.655273 350.617767,954.944946 
M827.515015,780.987915 
	C821.260681,788.399475 815.006409,795.811035 808.351929,803.696777 
	C817.371948,802.047302 832.649170,783.978088 833.657043,774.071167 
	C831.577820,776.430420 829.801208,778.446350 827.515015,780.987915 
M835.725220,773.738098 
	C836.113586,772.629761 836.501953,771.521484 836.890320,770.413208 
	C836.535950,770.308167 836.181519,770.203186 835.827087,770.098145 
	C835.545044,771.450134 835.263000,772.802063 835.725220,773.738098 
z"/>
<path fill="#000000" opacity="1.000000" stroke="none" 
	d="
M1.000003,604.468628 
	C1.664152,604.615417 2.797271,605.147217 2.924042,605.858459 
	C6.343310,625.041077 8.769993,644.453735 13.273053,663.373352 
	C16.905340,678.634399 22.847780,693.366211 28.120213,708.206726 
	C30.383013,714.575928 33.544704,720.625793 36.297981,726.820740 
	C36.755074,726.747803 37.212162,726.674866 37.669250,726.601868 
	C37.094078,722.822327 36.518906,719.042786 35.943729,715.263245 
	C36.383698,715.118286 36.823666,714.973328 37.263634,714.828430 
	C39.181522,719.584961 40.943333,724.411682 43.047405,729.084412 
	C48.698875,741.635254 54.238800,754.247437 60.326073,766.587097 
	C64.455383,774.957764 69.192322,783.061340 74.158501,790.969788 
	C76.025551,793.942993 79.306427,796.028320 82.754616,798.021362 
	C54.495632,739.459717 34.542122,678.803650 30.138466,613.741943 
	C33.243484,622.927979 32.416939,633.254883 38.873119,642.833435 
	C39.434692,640.639648 39.977066,639.533081 39.960442,638.434998 
	C39.681515,620.007935 39.383347,601.580872 38.979519,583.156189 
	C38.758640,573.078613 37.693813,562.975464 38.165813,552.938171 
	C38.720871,541.134583 40.529114,529.389893 42.930157,517.724243 
	C42.619743,523.609863 42.256660,529.493286 42.011112,535.381592 
	C41.631966,544.473633 40.992992,553.571838 41.068619,562.662415 
	C41.246243,584.013123 42.851803,605.231628 46.859653,626.280334 
	C49.497078,640.131775 51.569504,654.060242 57.475033,667.032471 
	C57.666401,667.452881 57.831161,667.906799 57.892551,668.360718 
	C58.039967,669.450745 58.118435,670.550110 58.224735,671.645752 
	C59.370903,671.280212 60.517063,670.914734 62.065220,670.421082 
	C69.019531,686.932251 75.590668,703.971130 83.324203,720.464966 
	C90.185738,735.099121 97.936584,749.360107 106.030083,763.360779 
	C114.702621,778.363098 125.892502,791.538025 137.621735,804.306824 
	C145.339691,812.708862 152.239212,821.879211 159.227524,830.920105 
	C160.504959,832.572693 160.227844,835.343262 161.046356,837.450867 
	C163.069550,842.660156 164.599884,848.248657 167.602966,852.853455 
	C175.825760,865.461731 183.904053,878.314575 193.550476,889.801880 
	C203.187500,901.278137 214.658813,911.213440 225.317200,921.833069 
	C231.714935,928.207581 238.041885,934.653992 244.494202,940.972534 
	C261.691284,957.812988 281.116882,971.711182 301.761780,983.953308 
	C331.942749,1001.850159 363.902527,1015.823181 397.443268,1025.990601 
	C413.800232,1030.948975 430.411011,1035.234985 447.128265,1038.782104 
	C458.252197,1041.142334 469.784241,1041.532715 481.102264,1043.039795 
	C490.278320,1044.261475 499.424316,1045.735107 508.553864,1047.273682 
	C520.648376,1049.311768 532.728577,1049.775757 544.924072,1048.113647 
	C552.229736,1047.118042 559.639832,1046.900146 566.954529,1045.956787 
	C578.562927,1044.459961 590.193787,1042.992432 601.699768,1040.883179 
	C615.994202,1038.262695 630.232178,1035.262451 644.384644,1031.955688 
	C666.060791,1026.891113 687.009277,1019.526184 707.499573,1010.862000 
	C738.773376,997.637939 768.401855,981.335327 796.171997,961.859619 
	C809.595642,952.445312 822.514832,942.185486 834.854980,931.385803 
	C848.936890,919.061646 862.883240,906.407837 875.486145,892.615906 
	C889.086121,877.732910 901.555176,861.734253 913.630310,845.559875 
	C930.329773,823.191345 943.844177,798.798218 955.650574,773.543823 
	C966.854919,749.577515 976.421143,724.939758 983.022217,699.246155 
	C985.982422,687.724365 989.320740,676.277832 991.710205,664.637573 
	C993.997498,653.494751 995.403748,642.162537 996.952820,630.880005 
	C997.888367,624.066223 998.326538,617.184998 999.083618,610.344666 
	C999.162598,609.630859 999.890198,608.988953 1000.658447,608.656860 
	C1001.000000,781.296326 1001.000000,953.592712 1001.000000,1125.944580 
	C667.775146,1125.944580 334.550293,1125.944580 1.000000,1125.944580 
	C1.000000,952.312561 1.000000,778.624939 1.000003,604.468628 
z"/>
<path fill="#000000" opacity="1.000000" stroke="none" 
	d="
M1001.000000,518.531372 
	C1000.335815,518.384216 999.170166,517.832825 999.081543,517.143127 
	C997.312378,503.370270 996.298706,489.467163 993.830261,475.826019 
	C991.038757,460.399261 987.766663,444.962799 983.249207,429.968750 
	C977.206970,409.913513 969.855896,390.247925 962.859070,370.488647 
	C961.251282,365.948181 958.805908,361.703278 956.724609,357.332581 
	C956.380920,356.610962 955.952087,355.355682 955.519714,355.336945 
	C949.297791,355.067169 949.380005,349.606415 947.393616,345.785950 
	C934.099426,320.217133 919.535400,295.478577 902.735657,271.959198 
	C883.861145,245.535095 861.835571,222.043671 838.256470,200.029297 
	C814.917664,178.239380 788.868958,159.912506 761.146240,143.948380 
	C740.475220,132.044983 719.012573,121.920914 696.808228,113.297325 
	C696.233459,113.074120 695.571533,113.075462 693.685181,112.761574 
	C695.448059,113.970421 696.227661,114.438156 696.928589,115.003418 
	C697.712708,115.635773 698.425476,116.356560 698.133118,116.088409 
	C672.578186,108.616699 646.220215,100.305962 619.510071,93.346977 
	C605.432678,89.679276 590.754211,88.283699 576.321594,86.025330 
	C564.894287,84.237213 553.443970,82.575012 541.973389,81.092560 
	C534.825867,80.168816 527.633362,79.294136 520.440552,79.077332 
	C501.854828,78.517113 483.243073,77.739326 464.669830,78.194786 
	C450.615143,78.539459 436.607391,80.690628 422.572296,81.966553 
	C398.928223,84.116043 375.680420,88.658829 352.929077,95.174187 
	C333.710205,100.677956 314.648193,106.984055 296.017242,114.223198 
	C271.562836,123.725098 248.286255,135.827011 226.130249,149.970291 
	C225.181152,150.576141 223.639252,151.289993 223.565979,152.066101 
	C223.010284,157.952820 217.827591,158.811951 214.119736,161.484222 
	C199.904297,171.729309 185.330215,181.590454 171.955154,192.859192 
	C155.220825,206.958160 138.644867,221.461655 123.651321,237.348511 
	C109.022896,252.848495 95.951988,269.919769 83.140739,287.008514 
	C65.959435,309.926392 52.600945,335.226685 40.514484,361.122955 
	C30.814779,381.905396 22.756613,403.360229 16.972189,425.610229 
	C16.049477,429.159424 14.969460,432.667603 14.023404,436.211090 
	C13.858600,436.828400 14.000046,437.527435 14.000046,439.200836 
	C15.034348,437.109406 15.653774,435.856873 16.273201,434.604370 
	C16.560919,434.671997 16.848635,434.739655 17.136353,434.807281 
	C16.265413,438.521454 15.257835,442.209686 14.547457,445.954285 
	C11.647704,461.239624 8.622561,476.506378 6.079531,491.852203 
	C4.610995,500.714020 3.998151,509.716553 2.918790,518.645874 
	C2.832012,519.363831 2.111903,520.005188 1.343047,520.341064 
	C1.000000,347.037140 1.000000,174.074280 1.000000,1.055714 
	C334.224609,1.055714 667.449280,1.055714 1001.000000,1.055714 
	C1001.000000,173.354095 1001.000000,345.708374 1001.000000,518.531372 
z"/>
<path fill="#000000" opacity="1.000000" stroke="none" 
	d="
M509.342285,943.708740 
	C504.334839,943.809326 499.319275,943.762451 494.321503,944.038147 
	C479.088226,944.878845 464.425568,940.940918 449.558899,938.778076 
	C437.649139,937.045410 425.798615,934.905334 414.381073,933.021912 
	C411.455872,930.114197 408.462280,927.138489 405.466156,924.165405 
	C400.715820,928.503906 392.953888,927.043335 387.892487,922.842712 
	C383.878052,919.510986 378.217194,918.119141 373.218964,916.029602 
	C368.506836,914.059570 363.663208,912.401306 358.973907,910.381775 
	C357.856049,909.900391 357.061462,908.575806 356.231323,907.547729 
	C355.555328,906.710449 347.838623,900.928345 347.002625,900.467163 
	C339.417816,896.283386 331.851807,892.064697 324.324066,887.779236 
	C322.671326,886.838440 321.192444,885.592224 319.479095,884.377197 
	C319.914886,883.636780 320.503296,882.637207 320.839783,882.065552 
	C316.439423,879.841125 312.312531,877.754944 308.093292,875.622070 
	C308.461578,874.146790 308.797485,872.801208 309.176239,871.283936 
	C301.095428,870.170532 298.198883,862.962830 293.130402,858.393311 
	C288.693024,854.392883 284.881805,849.015015 279.697449,846.676575 
	C270.589691,842.568298 265.338959,834.949036 259.006348,828.183411 
	C255.803436,824.761475 252.533005,821.402832 249.078186,817.790894 
	C249.248398,816.715759 249.563828,814.723328 249.855850,812.878662 
	C243.687454,808.412170 237.567352,803.980591 231.371979,799.494507 
	C232.946136,792.249023 232.865707,792.185059 223.163818,793.420288 
	C221.616959,804.294800 229.087402,810.028748 236.069809,816.019104 
	C239.035278,818.563171 242.058868,821.039368 245.280594,823.734253 
	C244.115265,825.157593 243.091980,826.407471 241.684586,828.126465 
	C243.592896,831.001465 245.444901,834.202637 247.772064,837.009949 
	C248.356232,837.714600 250.465149,837.155273 251.873306,837.176758 
	C251.336319,836.695557 250.799332,836.214355 250.280487,835.209595 
	C250.420044,834.554993 250.541443,834.424011 250.662842,834.292969 
	C253.466812,835.845886 256.270752,837.398865 259.074707,838.951843 
	C258.965179,839.376892 258.855652,839.802002 258.746094,840.227051 
	C256.596619,840.227051 254.447159,840.227051 251.619888,840.227051 
	C256.450409,846.349304 260.991608,852.104919 265.636383,857.991821 
	C262.939240,859.663879 261.168274,860.761780 259.434937,861.836365 
	C257.241394,857.976440 255.437408,854.003418 252.884415,850.590698 
	C251.185226,848.319336 248.537933,846.663818 246.099777,845.059692 
	C242.093307,842.423523 238.722946,839.010925 238.312027,834.317017 
	C237.887100,829.462646 236.034576,827.387451 231.392487,827.913757 
	C230.017502,820.079895 224.251160,814.159180 217.160583,812.213562 
	C215.808060,811.842407 214.359879,809.392029 214.132187,807.738892 
	C212.509995,795.960999 206.880875,786.378113 198.645721,778.109009 
	C198.529144,777.992065 198.441025,777.846680 198.125320,777.435425 
	C199.344925,776.540039 200.564163,775.644958 200.834579,775.446411 
	C196.127792,767.194702 191.548477,759.166504 186.861923,750.950256 
	C183.240524,756.423828 185.886826,761.463440 187.905594,766.379700 
	C189.752380,770.877197 192.766235,774.987061 194.053879,779.605591 
	C198.043259,793.914734 209.409531,804.195923 214.354218,817.893433 
	C215.369339,820.705505 215.715805,823.758972 216.447281,827.046265 
	C214.829437,826.917725 213.921951,827.126892 213.567032,826.776428 
	C204.077423,817.406067 194.594177,808.027344 185.285355,798.478882 
	C184.418167,797.589478 184.716721,795.563477 184.474014,794.065247 
	C185.262039,794.131592 186.050079,794.197937 187.304352,794.729187 
	C191.177185,798.331909 193.688370,803.139709 199.729370,801.715149 
	C193.318115,791.356812 193.318115,791.356812 188.073288,793.921387 
	C188.073288,790.134277 188.073288,786.347107 188.073288,782.587585 
	C184.418991,780.789124 181.064392,779.138123 177.709778,777.487183 
	C169.133270,767.702759 167.347549,754.463928 162.997940,742.220947 
	C158.359360,729.164490 153.777252,716.086304 148.941040,703.103027 
	C147.674866,699.703857 146.417191,696.809448 146.767441,692.755737 
	C147.844681,680.287842 145.438751,668.072998 142.139420,656.023071 
	C141.407776,653.350891 141.622528,650.339111 141.813019,647.511414 
	C142.227264,641.362610 142.448074,622.962585 137.499115,616.209900 
	C136.999512,618.699707 136.290558,621.170166 136.057098,623.684631 
	C135.805817,626.391235 136.000305,629.139160 136.000305,631.869080 
	C135.313507,631.887146 134.626694,631.905212 133.939896,631.923340 
	C133.626709,624.267395 132.924713,616.602173 133.108292,608.958191 
	C133.296768,601.110718 134.426376,593.289612 135.004593,585.446655 
	C135.587097,577.546021 135.998062,569.632690 136.510559,561.295837 
	C137.321014,561.141663 138.531219,560.911377 139.209671,560.782227 
	C140.240860,553.550354 141.233444,546.589294 142.226013,539.628235 
	C141.538010,539.414673 140.849991,539.201111 140.161987,538.987549 
	C137.107651,547.160339 134.054199,555.333435 130.997894,563.505493 
	C130.614182,564.531494 130.371246,566.341064 129.799774,566.453918 
	C123.338654,567.729553 125.676941,573.035034 126.247208,576.059570 
	C128.063766,585.693909 126.477486,594.867981 124.529037,604.640564 
	C116.428070,601.566589 119.668381,608.772583 118.188148,611.539124 
	C117.000816,613.758362 117.245369,616.743713 115.792099,619.423523 
	C114.861259,612.694885 113.256348,605.979187 113.127731,599.235229 
	C112.762329,580.075928 113.350067,560.894897 112.789871,541.745056 
	C112.617828,535.863892 115.393906,532.360046 118.911842,527.566528 
	C119.278915,534.727722 115.267738,541.903564 122.727379,547.709534 
	C131.529053,461.152557 156.883636,382.082550 216.060974,316.572388 
	C215.642593,320.853271 215.224213,325.134155 214.668839,330.816895 
	C236.109787,309.106842 250.087036,282.340271 274.342957,265.139130 
	C274.681305,265.438751 275.019623,265.738373 275.357971,266.037994 
	C271.965240,269.515778 268.572540,272.993591 264.739899,276.922302 
	C274.382080,273.205231 282.874786,269.931274 291.367493,266.657318 
	C291.240601,266.244049 291.113739,265.830780 290.986877,265.417511 
	C289.437927,265.185669 287.889008,264.953857 285.919403,264.659088 
	C292.216278,254.654404 303.239197,251.754959 312.595612,246.054962 
	C311.967743,248.183487 311.370453,250.208450 310.702362,252.473312 
	C322.228851,250.176086 322.679657,249.768173 321.579926,242.669601 
	C323.498505,242.781143 325.374329,242.935394 327.253021,242.987091 
	C329.246368,243.041931 331.242371,242.999405 333.623352,242.999405 
	C334.763916,240.060776 335.864929,237.048096 337.130554,234.106216 
	C337.395050,233.491394 338.195190,232.951157 338.869659,232.692093 
	C348.021698,229.176727 357.171631,225.653397 366.369324,222.260086 
	C377.242432,218.248703 388.011139,213.844528 399.117645,210.617447 
	C405.614655,208.729660 412.775360,209.251755 419.463806,207.856888 
	C424.716431,206.761459 429.702789,204.389328 434.722961,202.614197 
	C435.584137,205.722931 437.602325,205.669876 441.535400,203.329391 
	C444.517548,201.554810 448.618439,201.456070 452.270142,201.059479 
	C457.504395,200.491043 462.815857,200.572495 468.024536,199.863403 
	C469.822784,199.618576 471.287933,197.474625 473.126678,196.848923 
	C475.763611,195.951630 478.588043,195.337646 481.361969,195.200684 
	C483.357666,195.102158 485.401489,195.979599 487.848999,196.514603 
	C487.635590,197.434448 487.380951,198.531921 487.022675,200.076218 
	C491.836884,199.283157 497.567535,202.322464 499.696899,195.122803 
	C499.791626,194.802597 503.343567,195.003387 504.856171,195.788254 
	C505.794769,196.275299 505.923370,198.323456 506.489105,199.872375 
	C510.595215,195.069351 515.503784,195.914505 520.831787,197.326263 
	C525.824829,198.649323 531.019714,199.308975 536.168335,199.872223 
	C537.347290,200.001205 539.627869,198.725800 539.819824,197.776840 
	C540.907227,192.399582 543.820068,193.971817 546.968811,195.456009 
	C551.765015,197.716705 556.559143,199.995834 561.454407,202.025406 
	C563.268311,202.777466 565.365234,202.846893 567.477661,202.484024 
	C566.823792,202.180893 566.169922,201.877762 565.635803,201.630142 
	C567.170715,200.503479 568.727539,199.360672 570.284424,198.217880 
	C570.207764,197.561523 570.131165,196.905182 570.054565,196.248825 
	C572.580933,197.521484 575.007324,199.107620 577.668884,199.956390 
	C579.437378,200.520386 582.061157,200.786133 583.397217,199.868225 
	C587.157654,197.284805 589.210510,197.397125 591.698730,201.253265 
	C592.496643,202.489731 593.606201,203.525116 594.984070,205.131638 
	C591.504517,204.716614 588.495361,204.023193 585.504883,204.096191 
	C582.582092,204.167542 579.678345,205.020828 576.766235,205.530884 
	C576.751587,206.214951 576.737000,206.899017 576.722412,207.583099 
	C582.829041,209.055435 588.941406,210.504395 595.041321,212.004105 
	C623.995728,219.122894 652.350952,228.052490 679.212524,241.136444 
	C691.821960,247.278397 704.347717,253.721191 716.299255,261.028809 
	C722.023560,264.528900 728.026367,267.847870 733.273010,272.035034 
	C737.064636,275.060944 739.731567,279.472443 743.035889,283.143860 
	C744.408325,284.668823 746.133972,287.028625 747.699463,287.028992 
	C754.736206,287.030670 756.859497,292.765808 760.399048,296.904419 
	C766.334167,303.844208 772.453003,310.635956 778.171936,317.749298 
	C785.614868,327.006897 792.940613,336.373840 799.926025,345.977875 
	C803.624573,351.062927 808.429688,356.471954 809.257263,362.234222 
	C810.322021,369.648773 819.249939,371.721222 818.201294,378.248474 
	C816.671143,380.945312 815.504089,383.002350 814.026001,385.607422 
	C818.268250,385.946930 821.442688,386.200989 823.188660,386.340729 
	C822.761108,390.820923 822.397705,394.629028 822.034302,398.437103 
	C822.623901,398.564819 823.213501,398.692535 823.803162,398.820251 
	C824.562195,397.827576 825.362976,396.863403 826.067566,395.833496 
	C826.674683,394.946198 827.172302,393.984009 828.740540,392.962860 
	C828.818909,394.392517 829.213074,395.898254 828.891846,397.231628 
	C828.529053,398.737518 827.523132,400.088409 826.555908,401.977295 
	C827.863403,401.863434 828.186279,401.856079 828.501892,401.804352 
	C830.189819,401.527618 831.876038,401.239838 833.562805,400.955841 
	C833.843079,402.939178 834.168152,404.917664 834.384094,406.907990 
	C834.488220,407.867828 834.127747,408.938538 834.424683,409.806061 
	C835.485046,412.904114 836.736938,415.936646 837.359375,419.203125 
	C831.114502,411.078369 831.114502,411.078369 827.742615,411.160492 
	C835.591309,417.958801 836.656616,427.309357 839.042358,436.139923 
	C840.369812,441.053345 841.826904,446.015350 846.700989,449.557587 
	C843.389954,457.659973 848.956238,463.657654 853.374390,469.558258 
	C855.796753,472.793396 854.242004,475.018036 853.663818,477.707611 
	C853.113098,480.269287 851.211609,483.199127 851.936890,485.247162 
	C853.756042,490.384033 856.725403,495.113556 859.991028,501.484497 
	C859.444214,504.363525 858.496033,509.356018 857.589233,514.130554 
	C860.081787,514.482239 863.087769,514.906372 866.584473,515.399780 
	C863.243713,521.992371 862.911560,527.420166 863.820190,533.429688 
	C865.161499,542.300659 865.962219,551.355835 865.862793,560.319946 
	C865.683228,576.497620 864.607056,592.663879 864.058472,608.840088 
	C863.965515,611.581726 864.840088,614.345703 864.889099,617.106140 
	C864.923828,619.063293 866.345825,621.779907 862.474426,622.411926 
	C861.464050,622.576965 860.787903,624.939819 860.007324,626.320984 
	C859.114197,627.901245 858.275757,629.512390 857.262207,631.390503 
	C860.557861,633.049622 861.278625,635.435242 860.412231,639.804504 
	C859.638245,643.707642 858.190247,646.589600 856.314026,649.921082 
	C854.190247,653.691895 853.337219,658.532654 853.141357,662.961609 
	C852.726868,672.337524 850.568970,680.205078 842.056824,682.713440 
	C840.549744,689.120789 839.844727,694.717285 837.876953,699.827515 
	C835.405518,706.245667 831.965759,712.300415 828.739624,718.403992 
	C828.413635,719.020691 826.682556,718.894714 825.164978,719.202332 
	C823.739380,722.902771 822.023438,727.356689 820.253479,731.950989 
	C819.535767,731.698669 818.640991,731.384155 817.625061,731.027100 
	C817.411743,731.503967 817.230774,731.918213 817.041992,732.328918 
	C815.584290,735.499817 814.610840,739.033142 812.567566,741.766663 
	C807.989075,747.891907 802.529602,753.372742 798.122742,759.606567 
	C795.712891,763.015320 795.338013,767.859314 792.939148,771.280273 
	C789.185547,776.633484 784.446106,781.288696 780.217102,786.317688 
	C777.508484,789.538696 774.955627,792.891357 772.362732,796.208252 
	C771.971619,796.708496 771.617981,797.866089 771.456970,797.828186 
	C761.906921,795.579346 763.626465,805.799255 759.088867,809.114319 
	C757.568726,810.224854 756.591370,812.532776 756.094299,814.479492 
	C755.401184,817.193726 754.155823,818.250793 751.347839,818.050110 
	C747.889771,817.802856 745.677551,818.645813 747.857300,822.873291 
	C748.557678,824.231689 748.289795,826.089355 748.477966,827.840698 
	C759.293396,827.124390 765.267212,820.072632 770.233215,811.452454 
	C772.477905,807.555908 775.309387,803.997437 778.303162,799.665649 
	C778.963196,801.835083 779.423279,803.347168 780.278870,806.159119 
	C783.854248,803.032043 786.809448,800.629395 789.497681,797.958130 
	C790.107727,797.351990 790.317444,795.280396 789.819275,794.790466 
	C786.041199,791.074280 790.275940,789.597168 791.322754,786.347046 
	C791.761414,787.501831 791.855164,787.653503 791.874512,787.814087 
	C792.117798,789.832092 792.350159,791.851501 792.585388,793.870483 
	C794.394226,792.302551 796.257812,790.792847 798.000549,789.154602 
	C801.635559,785.737366 805.206665,782.252136 808.825317,778.774353 
	C810.500671,780.772583 811.708618,782.213440 813.120178,783.897095 
	C812.680847,784.456909 812.323792,785.404602 811.709290,785.620850 
	C802.713867,788.786377 799.284729,796.826965 794.819397,804.152222 
	C793.339905,806.579346 790.246277,809.103333 787.581665,809.498169 
	C782.322144,810.277527 781.594604,813.225647 781.971497,817.558533 
	C774.082153,818.537964 770.892395,824.920959 768.449585,830.718506 
	C766.817627,834.591858 764.601746,835.479004 761.518188,835.915894 
	C758.942139,836.280762 755.980103,835.414978 755.732666,839.454712 
	C755.717224,839.706726 754.992676,839.984253 754.558044,840.131470 
	C746.181580,842.968567 739.895813,848.465698 734.922729,856.065857 
	C733.588013,854.968201 732.517578,854.087891 731.169800,852.979431 
	C726.724121,862.435791 716.309814,864.182129 708.106201,870.115295 
	C715.774597,872.673767 721.060425,869.302063 726.275879,866.140503 
	C730.557617,863.545044 734.337463,860.006714 738.806030,857.854309 
	C756.937134,849.121094 770.113403,833.572083 787.045044,823.167908 
	C791.117188,820.665649 793.777161,815.864990 797.367554,811.803589 
	C802.891296,814.447632 804.514038,808.481201 807.810181,804.607727 
	C807.771912,813.336487 802.298523,818.518860 798.137146,824.361572 
	C797.101135,825.816223 795.923767,827.194336 795.069397,828.749390 
	C793.073792,832.381592 792.033508,837.134705 785.970581,835.128967 
	C785.390442,834.936951 783.390015,836.601868 783.465454,837.236267 
	C784.340149,844.589233 778.617310,846.944397 773.943298,849.946350 
	C771.088684,851.779724 767.947571,853.208923 764.829468,854.579285 
	C760.897522,856.307190 758.313232,859.088806 756.984192,863.163879 
	C756.655884,864.170471 756.086060,865.387146 755.253540,865.896973 
	C742.981567,873.412170 730.941406,881.381897 718.239990,888.097107 
	C706.537415,894.284241 694.108337,899.097229 681.999878,904.516785 
	C681.700256,904.651001 681.415344,904.905762 681.110718,904.927917 
	C676.133484,905.289490 671.856689,906.285706 668.538086,910.955933 
	C664.340210,916.863403 657.070923,915.764526 650.824402,917.127563 
	C640.915161,919.289917 631.036133,921.847961 621.451721,925.135010 
	C616.569519,926.809387 611.924622,927.879028 606.769165,928.158020 
	C599.525696,928.550110 592.290161,929.772034 585.154602,931.167419 
	C581.904053,931.803040 579.137878,933.516113 575.687256,931.183777 
	C574.219482,930.191650 571.522461,931.018188 569.275146,931.018188 
	C569.032715,933.074280 568.829224,934.800171 568.565857,937.034241 
	C571.098511,936.702026 573.753784,936.353699 576.637085,935.975464 
	C575.568970,941.107300 571.002441,940.531250 568.136841,940.741821 
	C563.365906,941.092529 558.477844,939.849915 553.638977,939.279480 
	C552.825500,939.183594 551.979004,938.901978 551.202271,939.031799 
	C543.713440,940.283813 536.236328,941.605469 528.612244,942.932251 
	C527.938660,941.732666 527.240479,940.489258 526.685425,939.500854 
	C519.378235,939.500854 512.249329,939.500854 505.120361,939.500854 
	C505.006348,939.802002 504.892334,940.103210 504.778290,940.404358 
	C506.430756,941.024414 508.083191,941.644470 509.720764,942.788208 
	C509.584686,943.444153 509.463470,943.576477 509.342285,943.708740 
M683.999451,455.500763 
	C683.666321,448.244293 683.061462,440.988159 683.053162,433.731323 
	C683.032166,415.274994 681.946594,396.851929 677.787048,378.904602 
	C674.761902,365.852295 670.571899,352.686035 659.765137,343.577179 
	C656.304382,340.660156 651.228638,339.319977 646.661621,338.184204 
	C644.000061,337.522339 640.585327,338.025665 638.022400,339.161774 
	C628.283752,343.478821 617.907532,343.707153 607.638733,345.272186 
	C590.560852,347.874939 573.696045,351.946167 556.807922,355.698395 
	C545.765808,358.151825 534.829102,360.681915 523.355042,360.061035 
	C506.682495,359.158844 489.992737,358.341797 473.301117,358.083069 
	C452.483917,357.760345 431.689606,357.798920 410.956207,360.863617 
	C392.528259,363.587524 374.879517,368.532501 358.125549,376.520477 
	C351.608246,379.627777 345.819824,384.322083 339.217865,387.181824 
	C323.845459,393.840424 317.731537,405.770813 318.033478,421.748779 
	C318.173859,429.177795 318.491577,436.613434 319.053223,444.021515 
	C319.547302,450.537689 320.387848,457.033875 321.263275,463.513489 
	C322.765289,474.631348 324.530334,485.714600 325.948212,496.842529 
	C326.591919,501.894562 326.604584,507.024719 327.072388,512.103882 
	C327.144501,512.886841 328.127838,513.585876 328.689758,514.323730 
	C330.522583,517.634888 331.228302,522.255188 333.883911,524.963623 
	C337.558990,528.711792 337.024902,532.658875 336.909912,536.832764 
	C336.833832,539.594788 336.105225,542.339233 336.035980,545.100830 
	C335.647034,560.614624 336.215790,576.068237 338.850372,591.416809 
	C339.078125,592.743652 337.722778,595.093872 336.453522,595.797485 
	C330.575409,599.056030 328.168365,604.414307 327.090912,610.498108 
	C326.322327,614.837891 326.221252,619.295776 325.802399,623.920898 
	C321.954620,622.200500 320.696167,624.859924 320.329956,627.526611 
	C319.988861,630.010376 321.052948,632.665283 320.858429,635.195679 
	C320.471802,640.224670 319.371033,645.203674 319.074310,650.233337 
	C318.750885,655.715576 318.793579,661.241699 319.051483,666.731079 
	C319.545319,677.241150 320.284515,687.739929 320.960663,698.240906 
	C321.406860,705.170776 322.984711,712.227478 322.150299,718.992310 
	C320.955963,728.675049 320.612274,737.357727 326.817383,745.915710 
	C333.250793,754.788513 339.658264,763.622070 350.562561,766.553528 
	C357.889221,768.523193 365.832581,769.005005 373.469696,768.830078 
	C385.689362,768.549988 396.875336,770.504700 406.391571,779.636719 
	C407.578430,777.225098 408.507751,775.336792 408.839996,774.661682 
	C410.790894,779.222168 412.962555,784.298645 415.134216,789.375122 
	C415.582245,789.222046 416.030243,789.068909 416.478271,788.915833 
	C418.030914,783.173950 419.583557,777.432129 421.136200,771.690247 
	C422.329376,777.587341 421.258514,783.790222 424.951721,789.111145 
	C425.868530,783.367798 426.737732,777.922485 427.606964,772.477173 
	C429.052612,775.167542 429.654022,777.654907 429.960175,780.178101 
	C430.261932,782.665283 430.264740,785.188782 430.398712,787.696350 
	C436.298004,781.150513 436.298492,781.149902 443.274292,786.790710 
	C443.531982,786.999084 443.770508,787.456238 443.996979,787.442749 
	C445.832855,787.333923 448.752289,787.792419 449.310181,786.861145 
	C451.908722,782.523560 453.881805,784.102783 456.384155,786.773376 
	C457.410126,787.868164 459.016968,788.418762 460.396942,789.239197 
	C461.600037,787.659119 462.532166,786.434814 463.488861,785.178345 
	C464.346191,786.660217 465.050537,787.877625 465.690155,788.983215 
	C469.845306,788.983215 473.728821,789.389587 477.498901,788.907959 
	C489.369202,787.391541 501.191284,784.988464 513.059631,788.901917 
	C513.786804,789.141602 514.692566,788.899963 515.506531,788.806946 
	C526.538879,787.545715 537.544434,785.590271 548.607544,785.180908 
	C561.005615,784.722229 573.460693,786.050354 585.881042,785.880249 
	C598.402771,785.708618 611.028809,785.468994 623.388000,783.707764 
	C632.196350,782.452454 641.001465,779.425354 649.137756,775.717957 
	C656.571411,772.330627 663.263123,767.186035 669.945129,762.350525 
	C672.171753,760.739319 674.427734,757.859070 674.840698,755.267456 
	C677.198792,740.468140 679.829895,725.633850 680.789551,710.709961 
	C681.991089,692.026367 681.657898,673.244446 682.001587,654.505249 
	C682.324341,636.910034 682.664551,619.315247 682.999695,601.720276 
	C683.331360,584.310303 683.867371,566.901428 683.955566,549.490173 
	C684.112610,518.494324 683.999512,487.497131 683.999451,455.500763 
z"/>
<path fill="#000000" opacity="1.000000" stroke="none" 
	d="
M350.307983,954.721924 
	C338.656616,948.655273 326.975952,943.373840 316.075500,936.798889 
	C306.500031,931.023193 297.866669,923.701416 288.679688,917.258545 
	C284.667358,914.444641 279.325867,913.119690 279.493439,906.361023 
	C276.501129,908.029968 274.583344,909.099609 273.212616,909.864136 
	C270.680206,905.437195 268.321991,901.314758 265.837280,896.971130 
	C267.419159,897.274231 269.202515,897.615906 271.387695,898.034607 
	C271.732208,896.776733 272.084625,895.490051 272.551575,893.785156 
	C273.570038,894.519348 274.474701,895.105042 275.306000,895.780945 
	C286.437042,904.831482 296.799561,915.108398 308.871338,922.650391 
	C324.261292,932.265198 340.957123,939.819092 357.232544,947.977051 
	C367.770508,953.259033 378.582886,957.991699 389.219971,963.079895 
	C390.715393,963.795166 393.458282,964.307556 391.393646,967.255676 
	C391.257935,967.449341 393.024231,969.685852 394.094635,969.869141 
	C396.498810,970.280701 399.021820,969.998047 401.496460,969.998047 
	C401.707184,970.505615 401.917908,971.013184 402.128632,971.520752 
	C400.869873,972.013794 399.429382,973.175110 398.382080,972.890381 
	C392.044220,971.167297 385.824738,969.014038 379.508179,967.205444 
	C375.185333,965.967712 370.722168,965.213806 366.414764,963.931152 
	C364.324066,963.308533 362.398682,962.051636 360.483673,960.935608 
	C357.160187,958.998596 353.902863,956.947937 350.307983,954.721924 
z"/>
<path fill="#000000" opacity="1.000000" stroke="none" 
	d="
M218.072311,839.916504 
	C220.452499,841.517883 222.775482,843.215393 225.236710,844.680664 
	C226.494125,845.429260 227.999359,845.761658 229.335602,846.260925 
	C226.227951,841.316528 223.303833,836.664062 220.379700,832.011658 
	C220.622849,831.882324 220.865997,831.752991 221.109146,831.623596 
	C225.449539,836.103210 229.789612,840.583069 234.131760,845.060913 
	C234.233612,845.166016 234.470459,845.277710 234.455154,845.339417 
	C232.318527,853.949341 241.231110,855.552124 244.306854,861.289551 
	C244.192062,861.840515 244.059982,861.961853 243.927902,862.083252 
	C233.750977,856.901917 225.445602,849.377625 217.693115,840.711060 
	C217.808472,840.159973 217.940399,840.038269 218.072311,839.916504 
z"/>
<path fill="#000000" opacity="1.000000" stroke="none" 
	d="
M827.769775,780.725098 
	C829.801208,778.446350 831.577820,776.430420 833.657043,774.071167 
	C832.649170,783.978088 817.371948,802.047302 808.351929,803.696777 
	C815.006409,795.811035 821.260681,788.399475 827.769775,780.725098 
z"/>
<path fill="#000000" opacity="1.000000" stroke="none" 
	d="
M509.891693,943.117065 
	C513.595459,943.950073 517.113464,944.977844 520.631470,946.005615 
	C520.448181,946.592407 520.264893,947.179260 520.081543,947.766052 
	C516.666138,946.595703 513.250793,945.425415 509.588806,943.981934 
	C509.463470,943.576477 509.584686,943.444153 509.891693,943.117065 
z"/>
<path fill="#000000" opacity="1.000000" stroke="none" 
	d="
M835.353088,773.946045 
	C835.263000,772.802063 835.545044,771.450134 835.827087,770.098145 
	C836.181519,770.203186 836.535950,770.308167 836.890320,770.413208 
	C836.501953,771.521484 836.113586,772.629761 835.353088,773.946045 
z"/>
<path fill="#000000" opacity="1.000000" stroke="none" 
	d="
M250.111572,834.877808 
	C249.701080,834.507629 249.477661,833.945679 249.254257,833.383789 
	C249.594833,833.540588 249.935394,833.697510 250.469406,834.073669 
	C250.541443,834.424011 250.420044,834.554993 250.111572,834.877808 
z"/>
<path fill="#000000" opacity="1.000000" stroke="none" 
	d="
M217.473480,840.458618 
	C216.703842,840.423035 216.137253,840.210632 215.570679,839.998230 
	C215.816605,839.683838 216.062531,839.369446 216.308456,839.055054 
	C216.824738,839.158447 217.341019,839.261902 217.964813,839.640869 
	C217.940399,840.038269 217.808472,840.159973 217.473480,840.458618 
z"/>
<path fill="#000000" opacity="1.000000" stroke="none" 
	d="
M244.526642,861.541992 
	C244.983505,861.829956 245.237854,862.295166 245.492188,862.760315 
	C245.039780,862.714661 244.587402,862.669006 244.031464,862.353271 
	C244.059982,861.961853 244.192062,861.840515 244.526642,861.541992 
z"/>
<path fill="#BB84E8" opacity="1.000000" stroke="none" 
	d="
M683.999451,456.000610 
	C683.999512,487.497131 684.112610,518.494324 683.955566,549.490173 
	C683.867371,566.901428 683.331360,584.310303 682.999695,601.720276 
	C682.664551,619.315247 682.324341,636.910034 682.001587,654.505249 
	C681.657898,673.244446 681.991089,692.026367 680.789551,710.709961 
	C679.829895,725.633850 677.198792,740.468140 674.840698,755.267456 
	C674.427734,757.859070 672.171753,760.739319 669.945129,762.350525 
	C663.263123,767.186035 656.571411,772.330627 649.137756,775.717957 
	C641.001465,779.425354 632.196350,782.452454 623.388000,783.707764 
	C611.028809,785.468994 598.402771,785.708618 585.881042,785.880249 
	C573.460693,786.050354 561.005615,784.722229 548.607544,785.180908 
	C537.544434,785.590271 526.538879,787.545715 515.506531,788.806946 
	C514.692566,788.899963 513.786804,789.141602 513.059631,788.901917 
	C501.191284,784.988464 489.369202,787.391541 477.498901,788.907959 
	C473.728821,789.389587 469.845306,788.983215 465.690155,788.983215 
	C465.050537,787.877625 464.346191,786.660217 463.488861,785.178345 
	C462.532166,786.434814 461.600037,787.659119 460.396942,789.239197 
	C459.016968,788.418762 457.410126,787.868164 456.384155,786.773376 
	C453.881805,784.102783 451.908722,782.523560 449.310181,786.861145 
	C448.752289,787.792419 445.832855,787.333923 443.996979,787.442749 
	C443.770508,787.456238 443.531982,786.999084 443.274292,786.790710 
	C436.298492,781.149902 436.298004,781.150513 430.398712,787.696350 
	C430.264740,785.188782 430.261932,782.665283 429.960175,780.178101 
	C429.654022,777.654907 429.052612,775.167542 427.606964,772.477173 
	C426.737732,777.922485 425.868530,783.367798 424.951721,789.111145 
	C421.258514,783.790222 422.329376,777.587341 421.136200,771.690247 
	C419.583557,777.432129 418.030914,783.173950 416.478271,788.915833 
	C416.030243,789.068909 415.582245,789.222046 415.134216,789.375122 
	C412.962555,784.298645 410.790894,779.222168 408.839996,774.661682 
	C408.507751,775.336792 407.578430,777.225098 406.391571,779.636719 
	C396.875336,770.504700 385.689362,768.549988 373.469696,768.830078 
	C365.832581,769.005005 357.889221,768.523193 350.562561,766.553528 
	C339.658264,763.622070 333.250793,754.788513 326.817383,745.915710 
	C320.612274,737.357727 320.955963,728.675049 322.150299,718.992310 
	C322.984711,712.227478 321.406860,705.170776 320.960663,698.240906 
	C320.284515,687.739929 319.545319,677.241150 319.051483,666.731079 
	C318.793579,661.241699 318.750885,655.715576 319.074310,650.233337 
	C319.371033,645.203674 320.471802,640.224670 320.858429,635.195679 
	C321.052948,632.665283 319.988861,630.010376 320.329956,627.526611 
	C320.696167,624.859924 321.954620,622.200500 325.802399,623.920898 
	C326.221252,619.295776 326.322327,614.837891 327.090912,610.498108 
	C328.168365,604.414307 330.575409,599.056030 336.453522,595.797485 
	C337.722778,595.093872 339.078125,592.743652 338.850372,591.416809 
	C336.215790,576.068237 335.647034,560.614624 336.035980,545.100830 
	C336.105225,542.339233 336.833832,539.594788 336.909912,536.832764 
	C337.024902,532.658875 337.558990,528.711792 333.883911,524.963623 
	C331.228302,522.255188 330.522583,517.634888 328.689758,514.323730 
	C328.127838,513.585876 327.144501,512.886841 327.072388,512.103882 
	C326.604584,507.024719 326.591919,501.894562 325.948212,496.842529 
	C324.530334,485.714600 322.765289,474.631348 321.263275,463.513489 
	C320.387848,457.033875 319.547302,450.537689 319.053223,444.021515 
	C318.491577,436.613434 318.173859,429.177795 318.033478,421.748779 
	C317.731537,405.770813 323.845459,393.840424 339.217865,387.181824 
	C345.819824,384.322083 351.608246,379.627777 358.125549,376.520477 
	C374.879517,368.532501 392.528259,363.587524 410.956207,360.863617 
	C431.689606,357.798920 452.483917,357.760345 473.301117,358.083069 
	C489.992737,358.341797 506.682495,359.158844 523.355042,360.061035 
	C534.829102,360.681915 545.765808,358.151825 556.807922,355.698395 
	C573.696045,351.946167 590.560852,347.874939 607.638733,345.272186 
	C617.907532,343.707153 628.283752,343.478821 638.022400,339.161774 
	C640.585327,338.025665 644.000061,337.522339 646.661621,338.184204 
	C651.228638,339.319977 656.304382,340.660156 659.765137,343.577179 
	C670.571899,352.686035 674.761902,365.852295 677.787048,378.904602 
	C681.946594,396.851929 683.032166,415.274994 683.053162,433.731323 
	C683.061462,440.988159 683.666321,448.244293 683.999451,456.000610 
M393.169220,687.269531 
	C395.395050,699.489502 397.674774,711.700073 399.804535,723.936768 
	C400.273254,726.629822 401.349548,727.642700 404.223938,728.128357 
	C423.833557,731.441345 443.303741,735.708435 462.994110,738.373596 
	C479.045685,740.546326 495.237030,741.923645 511.603485,740.225586 
	C535.149719,737.782593 556.434631,729.944580 575.326660,715.774780 
	C593.705444,701.989807 607.363647,684.827515 611.583130,661.619751 
	C615.166931,641.908142 612.766602,622.652771 606.518738,603.658875 
	C602.335938,590.942810 595.650574,579.965698 585.129517,571.911194 
	C573.320435,562.870605 561.054993,554.359924 548.527222,546.338684 
	C526.561646,532.274658 504.005463,519.124695 484.042969,502.132416 
	C470.308533,490.441559 460.260437,477.031525 461.097687,457.775574 
	C462.103027,434.653168 474.669037,418.569885 494.577667,416.157166 
	C517.846741,413.337158 536.476501,421.778198 550.611511,440.405518 
	C561.114807,454.246918 568.801208,469.335632 571.959656,486.596344 
	C572.277405,488.332428 574.133484,490.752869 575.681152,491.113129 
	C579.968506,492.110992 584.508423,492.766907 588.877686,492.479767 
	C594.220764,492.128662 596.089294,489.585266 595.962952,484.189453 
	C595.803650,477.383148 595.465576,470.576141 595.008179,463.782654 
	C593.714905,444.573273 592.290833,425.372711 590.994019,406.163574 
	C590.745239,402.478180 589.208862,400.573334 585.379456,399.875732 
	C578.215759,398.570770 571.120544,396.856903 564.039246,395.138672 
	C544.491394,390.395752 524.741516,386.630249 504.610504,386.299896 
	C475.927246,385.829132 450.411743,395.231934 427.793274,412.801178 
	C403.117523,431.968323 389.695374,456.369904 391.978088,488.322021 
	C393.283997,506.601166 398.460114,523.252014 411.174469,537.041321 
	C421.961884,548.740662 434.067993,558.842590 447.225800,567.745850 
	C469.609558,582.891724 492.302582,597.611694 514.215515,613.412354 
	C531.625977,625.966431 544.152466,641.573730 540.248901,665.461060 
	C538.017578,679.115845 534.952515,692.480896 523.236023,700.799316 
	C505.654114,713.282227 486.171387,714.390381 466.416138,706.088440 
	C454.560181,701.106079 445.292389,692.673767 437.157257,682.697510 
	C426.835693,670.039917 418.545288,656.508057 414.896484,640.388245 
	C414.584503,639.009949 412.852020,637.204224 411.517639,636.945068 
	C407.329376,636.131714 403.007019,636.037903 398.753143,635.527222 
	C391.870087,634.700989 388.415283,637.413818 388.973663,644.312683 
	C390.110199,658.355225 391.718658,672.359497 393.169220,687.269531 
z"/>
<path fill="#BB84E8" opacity="1.000000" stroke="none" 
	d="
M187.886795,794.114136 
	C193.318115,791.356812 193.318115,791.356812 199.729370,801.715149 
	C193.688370,803.139709 191.177185,798.331909 187.552582,794.946533 
	C187.456467,794.568298 187.578384,794.437561 187.886795,794.114136 
z"/>
<path fill="#FFFEFF" opacity="1.000000" stroke="none" 
	d="
M393.150940,686.824585 
	C391.718658,672.359497 390.110199,658.355225 388.973663,644.312683 
	C388.415283,637.413818 391.870087,634.700989 398.753143,635.527222 
	C403.007019,636.037903 407.329376,636.131714 411.517639,636.945068 
	C412.852020,637.204224 414.584503,639.009949 414.896484,640.388245 
	C418.545288,656.508057 426.835693,670.039917 437.157257,682.697510 
	C445.292389,692.673767 454.560181,701.106079 466.416138,706.088440 
	C486.171387,714.390381 505.654114,713.282227 523.236023,700.799316 
	C534.952515,692.480896 538.017578,679.115845 540.248901,665.461060 
	C544.152466,641.573730 531.625977,625.966431 514.215515,613.412354 
	C492.302582,597.611694 469.609558,582.891724 447.225800,567.745850 
	C434.067993,558.842590 421.961884,548.740662 411.174469,537.041321 
	C398.460114,523.252014 393.283997,506.601166 391.978088,488.322021 
	C389.695374,456.369904 403.117523,431.968323 427.793274,412.801178 
	C450.411743,395.231934 475.927246,385.829132 504.610504,386.299896 
	C524.741516,386.630249 544.491394,390.395752 564.039246,395.138672 
	C571.120544,396.856903 578.215759,398.570770 585.379456,399.875732 
	C589.208862,400.573334 590.745239,402.478180 590.994019,406.163574 
	C592.290833,425.372711 593.714905,444.573273 595.008179,463.782654 
	C595.465576,470.576141 595.803650,477.383148 595.962952,484.189453 
	C596.089294,489.585266 594.220764,492.128662 588.877686,492.479767 
	C584.508423,492.766907 579.968506,492.110992 575.681152,491.113129 
	C574.133484,490.752869 572.277405,488.332428 571.959656,486.596344 
	C568.801208,469.335632 561.114807,454.246918 550.611511,440.405518 
	C536.476501,421.778198 517.846741,413.337158 494.577667,416.157166 
	C474.669037,418.569885 462.103027,434.653168 461.097687,457.775574 
	C460.260437,477.031525 470.308533,490.441559 484.042969,502.132416 
	C504.005463,519.124695 526.561646,532.274658 548.527222,546.338684 
	C561.054993,554.359924 573.320435,562.870605 585.129517,571.911194 
	C595.650574,579.965698 602.335938,590.942810 606.518738,603.658875 
	C612.766602,622.652771 615.166931,641.908142 611.583130,661.619751 
	C607.363647,684.827515 593.705444,701.989807 575.326660,715.774780 
	C556.434631,729.944580 535.149719,737.782593 511.603485,740.225586 
	C495.237030,741.923645 479.045685,740.546326 462.994110,738.373596 
	C443.303741,735.708435 423.833557,731.441345 404.223938,728.128357 
	C401.349548,727.642700 400.273254,726.629822 399.804535,723.936768 
	C397.674774,711.700073 395.395050,699.489502 393.150940,686.824585 
z"/>
</svg>